<?xml version="1.0" encoding="utf-8"?>
<svg xmlns="http://www.w3.org/2000/svg" viewBox="0 0 1024 1024">
  <ellipse style="fill: rgb(216, 216, 216); stroke: rgb(0, 0, 0);" cx="512" cy="512" rx="5" ry="5"/>
  <rect x="10" y="10" width="10" height="5" style="fill: none; stroke: rgb(0, 0, 0);"/>
  <polyline style="fill: none; stroke: rgb(255, 0, 0); stroke-width: 3px; paint-order: stroke; transform-box: fill-box; transform-origin: 50% 50%;" points="20 10 400 10 400 300 600 300 600 50 1000 100 700 300 700 413.814 300 500 200 100 120 700 250.348 784.32 120 1000 1000 900 300 700 400 600 600 600 900 800 1000 600 900 200 800 400 520 512"/>
  <rect x="410" y="28.0" width="160" height="250" style="stroke: rgb(0, 0, 0); fill: none;"/>
  <line style="stroke: rgb(0, 0, 0); fill: none;" x1="570" y1="28" x2="1024" y2="86"/>
  <polyline style="stroke: rgb(0, 0, 0); fill: none;" points="1024 106 728 300 726 416 900 186 1000 500"/>
  <polyline style="stroke: rgb(0, 0, 0); fill: none;" points="1024 600 900 830 600 630 400 630 340 700"/>
  <line style="fill: rgb(216, 216, 216); stroke: rgb(0, 0, 0);" x1="200" y1="1000" x2="1024" y2="905"/>
  <ellipse style="fill: rgb(216, 216, 216); stroke: rgb(0, 0, 0); fill-opacity: 0.38;" cx="565" cy="800" rx="120" ry="120"/>
  <polyline style="stroke: rgb(0, 0, 0); fill: none;" points="726 416 300 544 200 300 147 700 800 420 900 300 970 600 900 700 500 550"/>
  <rect y="700" width="180" height="180" style="fill: rgb(216, 216, 216); stroke: rgb(0, 0, 0); transform-origin: 260px 700px;" transform="matrix(0.499999, -0.866026, 0.866026, 0.499999, -179.999805, -0.000085)" x="80"/>
  <ellipse style="fill: rgb(216, 216, 216); stroke: rgb(0, 0, 0);" cx="710" cy="165" rx="90" ry="90"/>
  <polyline style="fill: rgb(216, 216, 216); stroke: rgb(0, 0, 0);" points="700 255 685 400 300 480 200 20 390 15 390 315 695 300"/>
  <polyline style="fill: rgb(216, 216, 216); stroke: rgb(0, 0, 0);" points="20 20 200 20 0 800"/>
  <ellipse style="fill: rgb(216, 216, 216); stroke: rgb(0, 0, 0);" cx="343" cy="860" rx="110" ry="110"/>
  <line style="fill: rgb(216, 216, 216); stroke: rgb(0, 0, 0);" x1="147" y1="700" x2="300" y2="760"/>
  <line style="fill: rgb(216, 216, 216); stroke: rgb(0, 0, 0);" x1="980" y1="900" x2="446" y2="900"/>
</svg>